<?xml version="1.0" encoding="us-ascii" standalone="no"?><svg xmlns="http://www.w3.org/2000/svg" xmlns:xlink="http://www.w3.org/1999/xlink" contentStyleType="text/css" height="1833px" preserveAspectRatio="none" style="width:2193px;height:1833px;background:#FFFFFF;" version="1.1" viewBox="0 0 2193 1833" width="2193px" zoomAndPan="magnify"><defs/><g><text fill="#000000" font-family="sans-serif" font-size="14" font-weight="bold" lengthAdjust="spacing" textLength="282" x="948.5" y="24.5332">Syst&#232;me de Gestion de Tickets - Partie 2</text><text fill="#000000" font-family="sans-serif" font-size="14" font-weight="bold" lengthAdjust="spacing" textLength="361" x="909" y="42.1426">Patrons de conception: Composite, Strategy, Visitor</text><!--cluster classes--><g id="cluster_classes"><rect fill="none" height="1764" rx="2.5" ry="2.5" style="stroke:#000000;stroke-width:1.5;" width="1780" x="7" y="63.2188"/><text fill="#000000" font-family="sans-serif" font-size="14" font-weight="bold" lengthAdjust="spacing" textLength="53" x="870.5" y="79.752">classes</text></g><!--cluster content--><g id="cluster_content"><rect fill="none" height="453" rx="2.5" ry="2.5" style="stroke:#000000;stroke-width:1.5;" width="986" x="769" y="1074.2188"/><text fill="#000000" font-family="sans-serif" font-size="14" font-weight="bold" lengthAdjust="spacing" textLength="54" x="1235" y="1090.752">content</text></g><!--cluster exporter--><g id="cluster_exporter"><rect fill="none" height="516" rx="2.5" ry="2.5" style="stroke:#000000;stroke-width:1.5;" width="690" x="39" y="1279.2188"/><text fill="#000000" font-family="sans-serif" font-size="14" font-weight="bold" lengthAdjust="spacing" textLength="61" x="353.5" y="1295.752">exporter</text></g><!--cluster entities--><g id="cluster_entities"><rect fill="none" height="910" rx="2.5" ry="2.5" style="stroke:#000000;stroke-width:1.5;" width="648" x="744" y="115.2188"/><text fill="#000000" font-family="sans-serif" font-size="14" font-weight="bold" lengthAdjust="spacing" textLength="53" x="1041.5" y="131.752">entities</text></g><!--class Content--><g id="elem_Content"><rect codeLine="17" fill="#E3F2FD" height="83.2188" id="Content" rx="2.5" ry="2.5" style="stroke:#1976D2;stroke-width:0.5;" width="173" x="1196.5" y="1118.2188"/><ellipse cx="1253.75" cy="1134.2188" fill="#B4A7E5" rx="11" ry="11" style="stroke:#181818;stroke-width:1.0;"/><path d="M1254.7031,1130.8594 L1254.7031,1137.5156 L1256.4219,1137.5156 Q1257.0313,1137.5156 1257.2969,1137.75 Q1257.5625,1137.9844 1257.5625,1138.375 Q1257.5625,1138.75 1257.2969,1138.9844 Q1257.0313,1139.2188 1256.4219,1139.2188 L1251.2813,1139.2188 Q1250.6719,1139.2188 1250.4063,1138.9844 Q1250.1406,1138.75 1250.1406,1138.3594 Q1250.1406,1137.9844 1250.4063,1137.75 Q1250.6719,1137.5156 1251.2813,1137.5156 L1253,1137.5156 L1253,1130.8594 L1251.2813,1130.8594 Q1250.6719,1130.8594 1250.4063,1130.625 Q1250.1406,1130.3906 1250.1406,1130 Q1250.1406,1129.625 1250.4063,1129.3906 Q1250.6719,1129.1563 1251.2813,1129.1563 L1256.4219,1129.1563 Q1257.0313,1129.1563 1257.2969,1129.3906 Q1257.5625,1129.625 1257.5625,1130 Q1257.5625,1130.3906 1257.2969,1130.625 Q1257.0313,1130.8594 1256.4219,1130.8594 L1254.7031,1130.8594 Z " fill="#000000"/><text fill="#000000" font-family="sans-serif" font-size="14" font-style="italic" lengthAdjust="spacing" textLength="50" x="1274.25" y="1139.9473">Content</text><line style="stroke:#1976D2;stroke-width:0.5;" x1="1197.5" x2="1368.5" y1="1150.2188" y2="1150.2188"/><line style="stroke:#1976D2;stroke-width:0.5;" x1="1197.5" x2="1368.5" y1="1158.2188" y2="1158.2188"/><text fill="#000000" font-family="sans-serif" font-size="14" lengthAdjust="spacing" textLength="111" x="1202.5" y="1176.752">+display() : String</text><text fill="#000000" font-family="sans-serif" font-size="14" lengthAdjust="spacing" textLength="161" x="1202.5" y="1194.3613">+accept(exporter) : String</text></g><!--class TextContent--><g id="elem_TextContent"><rect codeLine="22" fill="#E3F2FD" height="153.6563" id="TextContent" rx="2.5" ry="2.5" style="stroke:#1976D2;stroke-width:0.5;" width="173" x="1557.5" y="1314.2188"/><ellipse cx="1601.3" cy="1330.2188" fill="#ADD1B2" rx="11" ry="11" style="stroke:#181818;stroke-width:1.0;"/><path d="M1604.0656,1326.0938 Q1604.2219,1325.875 1604.4094,1325.7656 Q1604.5969,1325.6563 1604.8156,1325.6563 Q1605.1906,1325.6563 1605.425,1325.9219 Q1605.6594,1326.1719 1605.6594,1326.7813 L1605.6594,1328.2344 Q1605.6594,1328.8438 1605.425,1329.1094 Q1605.1906,1329.375 1604.8156,1329.375 Q1604.4719,1329.375 1604.2688,1329.1719 Q1604.0656,1328.9844 1603.9563,1328.4688 Q1603.9094,1328.1094 1603.7219,1327.9219 Q1603.3938,1327.5469 1602.7844,1327.3281 Q1602.175,1327.1094 1601.55,1327.1094 Q1600.7844,1327.1094 1600.1438,1327.4375 Q1599.5188,1327.7656 1599.0188,1328.5156 Q1598.5344,1329.2656 1598.5344,1330.2969 L1598.5344,1331.3906 Q1598.5344,1332.625 1599.425,1333.4531 Q1600.3156,1334.2656 1601.9094,1334.2656 Q1602.8469,1334.2656 1603.5031,1334.0156 Q1603.8938,1333.8594 1604.3156,1333.4219 Q1604.5813,1333.1563 1604.7219,1333.0781 Q1604.8781,1333 1605.0813,1333 Q1605.4094,1333 1605.6594,1333.2656 Q1605.925,1333.5156 1605.925,1333.8594 Q1605.925,1334.2031 1605.5813,1334.6094 Q1605.0813,1335.1875 1604.2844,1335.5156 Q1603.2063,1335.9688 1601.9094,1335.9688 Q1600.3938,1335.9688 1599.1906,1335.3438 Q1598.2063,1334.8438 1597.5188,1333.7813 Q1596.8313,1332.7031 1596.8313,1331.4219 L1596.8313,1330.2656 Q1596.8313,1328.9375 1597.4406,1327.7969 Q1598.0656,1326.6406 1599.1594,1326.0313 Q1600.2531,1325.4063 1601.4875,1325.4063 Q1602.2219,1325.4063 1602.8625,1325.5781 Q1603.5188,1325.7344 1604.0656,1326.0938 Z " fill="#000000"/><text fill="#000000" font-family="sans-serif" font-size="14" lengthAdjust="spacing" textLength="77" x="1621.7" y="1335.9473">TextContent</text><line style="stroke:#1976D2;stroke-width:0.5;" x1="1558.5" x2="1729.5" y1="1346.2188" y2="1346.2188"/><text fill="#000000" font-family="sans-serif" font-size="14" lengthAdjust="spacing" textLength="76" x="1563.5" y="1364.752">-text : String</text><line style="stroke:#1976D2;stroke-width:0.5;" x1="1558.5" x2="1729.5" y1="1371.8281" y2="1371.8281"/><text fill="#000000" font-family="sans-serif" font-size="14" lengthAdjust="spacing" textLength="117" x="1563.5" y="1390.3613">+TextContent(text)</text><text fill="#000000" font-family="sans-serif" font-size="14" lengthAdjust="spacing" textLength="111" x="1563.5" y="1407.9707">+display() : String</text><text fill="#000000" font-family="sans-serif" font-size="14" lengthAdjust="spacing" textLength="161" x="1563.5" y="1425.5801">+accept(exporter) : String</text><text fill="#000000" font-family="sans-serif" font-size="14" lengthAdjust="spacing" textLength="114" x="1563.5" y="1443.1895">+getText() : String</text><text fill="#000000" font-family="sans-serif" font-size="14" lengthAdjust="spacing" textLength="124" x="1563.5" y="1460.7988">+setText(text) : void</text></g><!--class ImageContent--><g id="elem_ImageContent"><rect codeLine="31" fill="#E3F2FD" height="224.0938" id="ImageContent" rx="2.5" ry="2.5" style="stroke:#1976D2;stroke-width:0.5;" width="239" x="801.5" y="1279.2188"/><ellipse cx="872.75" cy="1295.2188" fill="#ADD1B2" rx="11" ry="11" style="stroke:#181818;stroke-width:1.0;"/><path d="M875.5156,1291.0938 Q875.6719,1290.875 875.8594,1290.7656 Q876.0469,1290.6563 876.2656,1290.6563 Q876.6406,1290.6563 876.875,1290.9219 Q877.1094,1291.1719 877.1094,1291.7813 L877.1094,1293.2344 Q877.1094,1293.8438 876.875,1294.1094 Q876.6406,1294.375 876.2656,1294.375 Q875.9219,1294.375 875.7188,1294.1719 Q875.5156,1293.9844 875.4063,1293.4688 Q875.3594,1293.1094 875.1719,1292.9219 Q874.8438,1292.5469 874.2344,1292.3281 Q873.625,1292.1094 873,1292.1094 Q872.2344,1292.1094 871.5938,1292.4375 Q870.9688,1292.7656 870.4688,1293.5156 Q869.9844,1294.2656 869.9844,1295.2969 L869.9844,1296.3906 Q869.9844,1297.625 870.875,1298.4531 Q871.7656,1299.2656 873.3594,1299.2656 Q874.2969,1299.2656 874.9531,1299.0156 Q875.3438,1298.8594 875.7656,1298.4219 Q876.0313,1298.1563 876.1719,1298.0781 Q876.3281,1298 876.5313,1298 Q876.8594,1298 877.1094,1298.2656 Q877.375,1298.5156 877.375,1298.8594 Q877.375,1299.2031 877.0313,1299.6094 Q876.5313,1300.1875 875.7344,1300.5156 Q874.6563,1300.9688 873.3594,1300.9688 Q871.8438,1300.9688 870.6406,1300.3438 Q869.6563,1299.8438 868.9688,1298.7813 Q868.2813,1297.7031 868.2813,1296.4219 L868.2813,1295.2656 Q868.2813,1293.9375 868.8906,1292.7969 Q869.5156,1291.6406 870.6094,1291.0313 Q871.7031,1290.4063 872.9375,1290.4063 Q873.6719,1290.4063 874.3125,1290.5781 Q874.9688,1290.7344 875.5156,1291.0938 Z " fill="#000000"/><text fill="#000000" font-family="sans-serif" font-size="14" lengthAdjust="spacing" textLength="88" x="893.25" y="1300.9473">ImageContent</text><line style="stroke:#1976D2;stroke-width:0.5;" x1="802.5" x2="1039.5" y1="1311.2188" y2="1311.2188"/><text fill="#000000" font-family="sans-serif" font-size="14" lengthAdjust="spacing" textLength="121" x="807.5" y="1329.752">-imagePath : String</text><text fill="#000000" font-family="sans-serif" font-size="14" lengthAdjust="spacing" textLength="100" x="807.5" y="1347.3613">-caption : String</text><line style="stroke:#1976D2;stroke-width:0.5;" x1="802.5" x2="1039.5" y1="1354.4375" y2="1354.4375"/><text fill="#000000" font-family="sans-serif" font-size="14" lengthAdjust="spacing" textLength="227" x="807.5" y="1372.9707">+ImageContent(imagePath, caption)</text><text fill="#000000" font-family="sans-serif" font-size="14" lengthAdjust="spacing" textLength="173" x="807.5" y="1390.5801">+ImageContent(imagePath)</text><text fill="#000000" font-family="sans-serif" font-size="14" lengthAdjust="spacing" textLength="111" x="807.5" y="1408.1895">+display() : String</text><text fill="#000000" font-family="sans-serif" font-size="14" lengthAdjust="spacing" textLength="161" x="807.5" y="1425.7988">+accept(exporter) : String</text><text fill="#000000" font-family="sans-serif" font-size="14" lengthAdjust="spacing" textLength="154" x="807.5" y="1443.4082">+getImagePath() : String</text><text fill="#000000" font-family="sans-serif" font-size="14" lengthAdjust="spacing" textLength="136" x="807.5" y="1461.0176">+getCaption() : String</text><text fill="#000000" font-family="sans-serif" font-size="14" lengthAdjust="spacing" textLength="170" x="807.5" y="1478.627">+setImagePath(path) : void</text><text fill="#000000" font-family="sans-serif" font-size="14" lengthAdjust="spacing" textLength="170" x="807.5" y="1496.2363">+setCaption(caption) : void</text></g><!--class VideoContent--><g id="elem_VideoContent"><rect codeLine="44" fill="#E3F2FD" height="224.0938" id="VideoContent" rx="2.5" ry="2.5" style="stroke:#1976D2;stroke-width:0.5;" width="239" x="1075.5" y="1279.2188"/><ellipse cx="1147.75" cy="1295.2188" fill="#ADD1B2" rx="11" ry="11" style="stroke:#181818;stroke-width:1.0;"/><path d="M1150.5156,1291.0938 Q1150.6719,1290.875 1150.8594,1290.7656 Q1151.0469,1290.6563 1151.2656,1290.6563 Q1151.6406,1290.6563 1151.875,1290.9219 Q1152.1094,1291.1719 1152.1094,1291.7813 L1152.1094,1293.2344 Q1152.1094,1293.8438 1151.875,1294.1094 Q1151.6406,1294.375 1151.2656,1294.375 Q1150.9219,1294.375 1150.7188,1294.1719 Q1150.5156,1293.9844 1150.4063,1293.4688 Q1150.3594,1293.1094 1150.1719,1292.9219 Q1149.8438,1292.5469 1149.2344,1292.3281 Q1148.625,1292.1094 1148,1292.1094 Q1147.2344,1292.1094 1146.5938,1292.4375 Q1145.9688,1292.7656 1145.4688,1293.5156 Q1144.9844,1294.2656 1144.9844,1295.2969 L1144.9844,1296.3906 Q1144.9844,1297.625 1145.875,1298.4531 Q1146.7656,1299.2656 1148.3594,1299.2656 Q1149.2969,1299.2656 1149.9531,1299.0156 Q1150.3438,1298.8594 1150.7656,1298.4219 Q1151.0313,1298.1563 1151.1719,1298.0781 Q1151.3281,1298 1151.5313,1298 Q1151.8594,1298 1152.1094,1298.2656 Q1152.375,1298.5156 1152.375,1298.8594 Q1152.375,1299.2031 1152.0313,1299.6094 Q1151.5313,1300.1875 1150.7344,1300.5156 Q1149.6563,1300.9688 1148.3594,1300.9688 Q1146.8438,1300.9688 1145.6406,1300.3438 Q1144.6563,1299.8438 1143.9688,1298.7813 Q1143.2813,1297.7031 1143.2813,1296.4219 L1143.2813,1295.2656 Q1143.2813,1293.9375 1143.8906,1292.7969 Q1144.5156,1291.6406 1145.6094,1291.0313 Q1146.7031,1290.4063 1147.9375,1290.4063 Q1148.6719,1290.4063 1149.3125,1290.5781 Q1149.9688,1290.7344 1150.5156,1291.0938 Z " fill="#000000"/><text fill="#000000" font-family="sans-serif" font-size="14" lengthAdjust="spacing" textLength="86" x="1168.25" y="1300.9473">VideoContent</text><line style="stroke:#1976D2;stroke-width:0.5;" x1="1076.5" x2="1313.5" y1="1311.2188" y2="1311.2188"/><text fill="#000000" font-family="sans-serif" font-size="14" lengthAdjust="spacing" textLength="117" x="1081.5" y="1329.752">-videoPath : String</text><text fill="#000000" font-family="sans-serif" font-size="14" lengthAdjust="spacing" textLength="84" x="1081.5" y="1347.3613">-duration : int</text><line style="stroke:#1976D2;stroke-width:0.5;" x1="1076.5" x2="1313.5" y1="1354.4375" y2="1354.4375"/><text fill="#000000" font-family="sans-serif" font-size="14" lengthAdjust="spacing" textLength="227" x="1081.5" y="1372.9707">+VideoContent(videoPath, duration)</text><text fill="#000000" font-family="sans-serif" font-size="14" lengthAdjust="spacing" textLength="167" x="1081.5" y="1390.5801">+VideoContent(videoPath)</text><text fill="#000000" font-family="sans-serif" font-size="14" lengthAdjust="spacing" textLength="111" x="1081.5" y="1408.1895">+display() : String</text><text fill="#000000" font-family="sans-serif" font-size="14" lengthAdjust="spacing" textLength="161" x="1081.5" y="1425.7988">+accept(exporter) : String</text><text fill="#000000" font-family="sans-serif" font-size="14" lengthAdjust="spacing" textLength="152" x="1081.5" y="1443.4082">+getVideoPath() : String</text><text fill="#000000" font-family="sans-serif" font-size="14" lengthAdjust="spacing" textLength="119" x="1081.5" y="1461.0176">+getDuration() : int</text><text fill="#000000" font-family="sans-serif" font-size="14" lengthAdjust="spacing" textLength="168" x="1081.5" y="1478.627">+setVideoPath(path) : void</text><text fill="#000000" font-family="sans-serif" font-size="14" lengthAdjust="spacing" textLength="181" x="1081.5" y="1496.2363">+setDuration(duration) : void</text></g><!--class CompositeContent--><g id="elem_CompositeContent"><rect codeLine="57" fill="#E3F2FD" height="206.4844" id="CompositeContent" rx="2.5" ry="2.5" style="stroke:#1976D2;stroke-width:0.5;" width="173" x="1349.5" y="1288.2188"/><ellipse cx="1375.3" cy="1304.2188" fill="#ADD1B2" rx="11" ry="11" style="stroke:#181818;stroke-width:1.0;"/><path d="M1378.0656,1300.0938 Q1378.2219,1299.875 1378.4094,1299.7656 Q1378.5969,1299.6563 1378.8156,1299.6563 Q1379.1906,1299.6563 1379.425,1299.9219 Q1379.6594,1300.1719 1379.6594,1300.7813 L1379.6594,1302.2344 Q1379.6594,1302.8438 1379.425,1303.1094 Q1379.1906,1303.375 1378.8156,1303.375 Q1378.4719,1303.375 1378.2688,1303.1719 Q1378.0656,1302.9844 1377.9563,1302.4688 Q1377.9094,1302.1094 1377.7219,1301.9219 Q1377.3938,1301.5469 1376.7844,1301.3281 Q1376.175,1301.1094 1375.55,1301.1094 Q1374.7844,1301.1094 1374.1438,1301.4375 Q1373.5188,1301.7656 1373.0188,1302.5156 Q1372.5344,1303.2656 1372.5344,1304.2969 L1372.5344,1305.3906 Q1372.5344,1306.625 1373.425,1307.4531 Q1374.3156,1308.2656 1375.9094,1308.2656 Q1376.8469,1308.2656 1377.5031,1308.0156 Q1377.8938,1307.8594 1378.3156,1307.4219 Q1378.5813,1307.1563 1378.7219,1307.0781 Q1378.8781,1307 1379.0813,1307 Q1379.4094,1307 1379.6594,1307.2656 Q1379.925,1307.5156 1379.925,1307.8594 Q1379.925,1308.2031 1379.5813,1308.6094 Q1379.0813,1309.1875 1378.2844,1309.5156 Q1377.2063,1309.9688 1375.9094,1309.9688 Q1374.3938,1309.9688 1373.1906,1309.3438 Q1372.2063,1308.8438 1371.5188,1307.7813 Q1370.8313,1306.7031 1370.8313,1305.4219 L1370.8313,1304.2656 Q1370.8313,1302.9375 1371.4406,1301.7969 Q1372.0656,1300.6406 1373.1594,1300.0313 Q1374.2531,1299.4063 1375.4875,1299.4063 Q1376.2219,1299.4063 1376.8625,1299.5781 Q1377.5188,1299.7344 1378.0656,1300.0938 Z " fill="#000000"/><text fill="#000000" font-family="sans-serif" font-size="14" lengthAdjust="spacing" textLength="117" x="1391.7" y="1309.9473">CompositeContent</text><line style="stroke:#1976D2;stroke-width:0.5;" x1="1350.5" x2="1521.5" y1="1320.2188" y2="1320.2188"/><text fill="#000000" font-family="sans-serif" font-size="14" lengthAdjust="spacing" textLength="89" x="1355.5" y="1338.752">-children : List</text><line style="stroke:#1976D2;stroke-width:0.5;" x1="1350.5" x2="1521.5" y1="1345.8281" y2="1345.8281"/><text fill="#000000" font-family="sans-serif" font-size="14" lengthAdjust="spacing" textLength="135" x="1355.5" y="1364.3613">+CompositeContent()</text><text fill="#000000" font-family="sans-serif" font-size="14" lengthAdjust="spacing" textLength="127" x="1355.5" y="1381.9707">+add(content) : void</text><text fill="#000000" font-family="sans-serif" font-size="14" lengthAdjust="spacing" textLength="150" x="1355.5" y="1399.5801">+remove(content) : void</text><text fill="#000000" font-family="sans-serif" font-size="14" lengthAdjust="spacing" textLength="125" x="1355.5" y="1417.1895">+getChildren() : List</text><text fill="#000000" font-family="sans-serif" font-size="14" lengthAdjust="spacing" textLength="130" x="1355.5" y="1434.7988">+isEmpty() : boolean</text><text fill="#000000" font-family="sans-serif" font-size="14" lengthAdjust="spacing" textLength="69" x="1355.5" y="1452.4082">+size() : int</text><text fill="#000000" font-family="sans-serif" font-size="14" lengthAdjust="spacing" textLength="111" x="1355.5" y="1470.0176">+display() : String</text><text fill="#000000" font-family="sans-serif" font-size="14" lengthAdjust="spacing" textLength="161" x="1355.5" y="1487.627">+accept(exporter) : String</text></g><!--class Exporter--><g id="elem_Exporter"><rect codeLine="72" fill="#E3F2FD" height="136.0469" id="Exporter" rx="2.5" ry="2.5" style="stroke:#1976D2;stroke-width:0.5;" width="299" x="386.5" y="1323.2188"/><ellipse cx="505.25" cy="1339.2188" fill="#B4A7E5" rx="11" ry="11" style="stroke:#181818;stroke-width:1.0;"/><path d="M506.2031,1335.8594 L506.2031,1342.5156 L507.9219,1342.5156 Q508.5313,1342.5156 508.7969,1342.75 Q509.0625,1342.9844 509.0625,1343.375 Q509.0625,1343.75 508.7969,1343.9844 Q508.5313,1344.2188 507.9219,1344.2188 L502.7813,1344.2188 Q502.1719,1344.2188 501.9063,1343.9844 Q501.6406,1343.75 501.6406,1343.3594 Q501.6406,1342.9844 501.9063,1342.75 Q502.1719,1342.5156 502.7813,1342.5156 L504.5,1342.5156 L504.5,1335.8594 L502.7813,1335.8594 Q502.1719,1335.8594 501.9063,1335.625 Q501.6406,1335.3906 501.6406,1335 Q501.6406,1334.625 501.9063,1334.3906 Q502.1719,1334.1563 502.7813,1334.1563 L507.9219,1334.1563 Q508.5313,1334.1563 508.7969,1334.3906 Q509.0625,1334.625 509.0625,1335 Q509.0625,1335.3906 508.7969,1335.625 Q508.5313,1335.8594 507.9219,1335.8594 L506.2031,1335.8594 Z " fill="#000000"/><text fill="#000000" font-family="sans-serif" font-size="14" font-style="italic" lengthAdjust="spacing" textLength="53" x="525.75" y="1344.9473">Exporter</text><line style="stroke:#1976D2;stroke-width:0.5;" x1="387.5" x2="684.5" y1="1355.2188" y2="1355.2188"/><line style="stroke:#1976D2;stroke-width:0.5;" x1="387.5" x2="684.5" y1="1363.2188" y2="1363.2188"/><text fill="#000000" font-family="sans-serif" font-size="14" lengthAdjust="spacing" textLength="153" x="392.5" y="1381.752">+export(content) : String</text><text fill="#000000" font-family="sans-serif" font-size="14" lengthAdjust="spacing" textLength="205" x="392.5" y="1399.3613">+exportText(textContent) : String</text><text fill="#000000" font-family="sans-serif" font-size="14" lengthAdjust="spacing" textLength="232" x="392.5" y="1416.9707">+exportImage(imageContent) : String</text><text fill="#000000" font-family="sans-serif" font-size="14" lengthAdjust="spacing" textLength="226" x="392.5" y="1434.5801">+exportVideo(videoContent) : String</text><text fill="#000000" font-family="sans-serif" font-size="14" lengthAdjust="spacing" textLength="287" x="392.5" y="1452.1895">+exportComposite(compositeContent) : String</text></g><!--class PDFExporter--><g id="elem_PDFExporter"><rect codeLine="80" fill="#E3F2FD" height="188.875" id="PDFExporter" rx="2.5" ry="2.5" style="stroke:#1976D2;stroke-width:0.5;" width="299" x="63.5" y="1582.2188"/><ellipse cx="168.25" cy="1598.2188" fill="#ADD1B2" rx="11" ry="11" style="stroke:#181818;stroke-width:1.0;"/><path d="M171.0156,1594.0938 Q171.1719,1593.875 171.3594,1593.7656 Q171.5469,1593.6563 171.7656,1593.6563 Q172.1406,1593.6563 172.375,1593.9219 Q172.6094,1594.1719 172.6094,1594.7813 L172.6094,1596.2344 Q172.6094,1596.8438 172.375,1597.1094 Q172.1406,1597.375 171.7656,1597.375 Q171.4219,1597.375 171.2188,1597.1719 Q171.0156,1596.9844 170.9063,1596.4688 Q170.8594,1596.1094 170.6719,1595.9219 Q170.3438,1595.5469 169.7344,1595.3281 Q169.125,1595.1094 168.5,1595.1094 Q167.7344,1595.1094 167.0938,1595.4375 Q166.4688,1595.7656 165.9688,1596.5156 Q165.4844,1597.2656 165.4844,1598.2969 L165.4844,1599.3906 Q165.4844,1600.625 166.375,1601.4531 Q167.2656,1602.2656 168.8594,1602.2656 Q169.7969,1602.2656 170.4531,1602.0156 Q170.8438,1601.8594 171.2656,1601.4219 Q171.5313,1601.1563 171.6719,1601.0781 Q171.8281,1601 172.0313,1601 Q172.3594,1601 172.6094,1601.2656 Q172.875,1601.5156 172.875,1601.8594 Q172.875,1602.2031 172.5313,1602.6094 Q172.0313,1603.1875 171.2344,1603.5156 Q170.1563,1603.9688 168.8594,1603.9688 Q167.3438,1603.9688 166.1406,1603.3438 Q165.1563,1602.8438 164.4688,1601.7813 Q163.7813,1600.7031 163.7813,1599.4219 L163.7813,1598.2656 Q163.7813,1596.9375 164.3906,1595.7969 Q165.0156,1594.6406 166.1094,1594.0313 Q167.2031,1593.4063 168.4375,1593.4063 Q169.1719,1593.4063 169.8125,1593.5781 Q170.4688,1593.7344 171.0156,1594.0938 Z " fill="#000000"/><text fill="#000000" font-family="sans-serif" font-size="14" lengthAdjust="spacing" textLength="81" x="188.75" y="1603.9473">PDFExporter</text><line style="stroke:#1976D2;stroke-width:0.5;" x1="64.5" x2="361.5" y1="1614.2188" y2="1614.2188"/><text fill="#000000" font-family="sans-serif" font-size="14" lengthAdjust="spacing" text-decoration="underline" textLength="146" x="69.5" y="1632.752">-PDF_HEADER : String</text><text fill="#000000" font-family="sans-serif" font-size="14" lengthAdjust="spacing" text-decoration="underline" textLength="149" x="69.5" y="1650.3613">-PDF_FOOTER : String</text><line style="stroke:#1976D2;stroke-width:0.5;" x1="64.5" x2="361.5" y1="1657.4375" y2="1657.4375"/><text fill="#000000" font-family="sans-serif" font-size="14" lengthAdjust="spacing" textLength="153" x="69.5" y="1675.9707">+export(content) : String</text><text fill="#000000" font-family="sans-serif" font-size="14" lengthAdjust="spacing" textLength="205" x="69.5" y="1693.5801">+exportText(textContent) : String</text><text fill="#000000" font-family="sans-serif" font-size="14" lengthAdjust="spacing" textLength="232" x="69.5" y="1711.1895">+exportImage(imageContent) : String</text><text fill="#000000" font-family="sans-serif" font-size="14" lengthAdjust="spacing" textLength="226" x="69.5" y="1728.7988">+exportVideo(videoContent) : String</text><text fill="#000000" font-family="sans-serif" font-size="14" lengthAdjust="spacing" textLength="287" x="69.5" y="1746.4082">+exportComposite(compositeContent) : String</text><text fill="#000000" font-family="sans-serif" font-size="14" lengthAdjust="spacing" textLength="229" x="69.5" y="1764.0176">+generateFileName(ticketID) : String</text></g><!--class HTMLExporter--><g id="elem_HTMLExporter"><rect codeLine="91" fill="#E3F2FD" height="146.75" id="HTMLExporter" rx="2.5" ry="2.5" style="stroke:#1976D2;stroke-width:0.5;" width="299" x="397.5" y="1603.2188"/><ellipse cx="497.75" cy="1624.5703" fill="#ADD1B2" rx="11" ry="11" style="stroke:#181818;stroke-width:1.0;"/><path d="M500.5156,1620.4453 Q500.6719,1620.2266 500.8594,1620.1172 Q501.0469,1620.0078 501.2656,1620.0078 Q501.6406,1620.0078 501.875,1620.2734 Q502.1094,1620.5234 502.1094,1621.1328 L502.1094,1622.5859 Q502.1094,1623.1953 501.875,1623.4609 Q501.6406,1623.7266 501.2656,1623.7266 Q500.9219,1623.7266 500.7188,1623.5234 Q500.5156,1623.3359 500.4063,1622.8203 Q500.3594,1622.4609 500.1719,1622.2734 Q499.8438,1621.8984 499.2344,1621.6797 Q498.625,1621.4609 498,1621.4609 Q497.2344,1621.4609 496.5938,1621.7891 Q495.9688,1622.1172 495.4688,1622.8672 Q494.9844,1623.6172 494.9844,1624.6484 L494.9844,1625.7422 Q494.9844,1626.9766 495.875,1627.8047 Q496.7656,1628.6172 498.3594,1628.6172 Q499.2969,1628.6172 499.9531,1628.3672 Q500.3438,1628.2109 500.7656,1627.7734 Q501.0313,1627.5078 501.1719,1627.4297 Q501.3281,1627.3516 501.5313,1627.3516 Q501.8594,1627.3516 502.1094,1627.6172 Q502.375,1627.8672 502.375,1628.2109 Q502.375,1628.5547 502.0313,1628.9609 Q501.5313,1629.5391 500.7344,1629.8672 Q499.6563,1630.3203 498.3594,1630.3203 Q496.8438,1630.3203 495.6406,1629.6953 Q494.6563,1629.1953 493.9688,1628.1328 Q493.2813,1627.0547 493.2813,1625.7734 L493.2813,1624.6172 Q493.2813,1623.2891 493.8906,1622.1484 Q494.5156,1620.9922 495.6094,1620.3828 Q496.7031,1619.7578 497.9375,1619.7578 Q498.6719,1619.7578 499.3125,1619.9297 Q499.9688,1620.0859 500.5156,1620.4453 Z " fill="#000000"/><text fill="#000000" font-family="sans-serif" font-size="12" font-style="italic" lengthAdjust="spacing" textLength="45" x="540.75" y="1620.6758">&#171;future&#187;</text><text fill="#000000" font-family="sans-serif" font-size="14" lengthAdjust="spacing" textLength="90" x="518.25" y="1637.8457">HTMLExporter</text><line style="stroke:#1976D2;stroke-width:0.5;" x1="398.5" x2="695.5" y1="1645.9219" y2="1645.9219"/><line style="stroke:#1976D2;stroke-width:0.5;" x1="398.5" x2="695.5" y1="1653.9219" y2="1653.9219"/><text fill="#000000" font-family="sans-serif" font-size="14" lengthAdjust="spacing" textLength="153" x="403.5" y="1672.4551">+export(content) : String</text><text fill="#000000" font-family="sans-serif" font-size="14" lengthAdjust="spacing" textLength="205" x="403.5" y="1690.0645">+exportText(textContent) : String</text><text fill="#000000" font-family="sans-serif" font-size="14" lengthAdjust="spacing" textLength="232" x="403.5" y="1707.6738">+exportImage(imageContent) : String</text><text fill="#000000" font-family="sans-serif" font-size="14" lengthAdjust="spacing" textLength="226" x="403.5" y="1725.2832">+exportVideo(videoContent) : String</text><text fill="#000000" font-family="sans-serif" font-size="14" lengthAdjust="spacing" textLength="287" x="403.5" y="1742.8926">+exportComposite(compositeContent) : String</text></g><!--class User--><g id="elem_User"><rect codeLine="102" fill="#E3F2FD" height="276.9219" id="User" rx="2.5" ry="2.5" style="stroke:#1976D2;stroke-width:0.5;" width="308" x="1052" y="167.2188"/><ellipse cx="1187.25" cy="183.2188" fill="#ADD1B2" rx="11" ry="11" style="stroke:#181818;stroke-width:1.0;"/><path d="M1190.0156,179.0938 Q1190.1719,178.875 1190.3594,178.7656 Q1190.5469,178.6563 1190.7656,178.6563 Q1191.1406,178.6563 1191.375,178.9219 Q1191.6094,179.1719 1191.6094,179.7813 L1191.6094,181.2344 Q1191.6094,181.8438 1191.375,182.1094 Q1191.1406,182.375 1190.7656,182.375 Q1190.4219,182.375 1190.2188,182.1719 Q1190.0156,181.9844 1189.9063,181.4688 Q1189.8594,181.1094 1189.6719,180.9219 Q1189.3438,180.5469 1188.7344,180.3281 Q1188.125,180.1094 1187.5,180.1094 Q1186.7344,180.1094 1186.0938,180.4375 Q1185.4688,180.7656 1184.9688,181.5156 Q1184.4844,182.2656 1184.4844,183.2969 L1184.4844,184.3906 Q1184.4844,185.625 1185.375,186.4531 Q1186.2656,187.2656 1187.8594,187.2656 Q1188.7969,187.2656 1189.4531,187.0156 Q1189.8438,186.8594 1190.2656,186.4219 Q1190.5313,186.1563 1190.6719,186.0781 Q1190.8281,186 1191.0313,186 Q1191.3594,186 1191.6094,186.2656 Q1191.875,186.5156 1191.875,186.8594 Q1191.875,187.2031 1191.5313,187.6094 Q1191.0313,188.1875 1190.2344,188.5156 Q1189.1563,188.9688 1187.8594,188.9688 Q1186.3438,188.9688 1185.1406,188.3438 Q1184.1563,187.8438 1183.4688,186.7813 Q1182.7813,185.7031 1182.7813,184.4219 L1182.7813,183.2656 Q1182.7813,181.9375 1183.3906,180.7969 Q1184.0156,179.6406 1185.1094,179.0313 Q1186.2031,178.4063 1187.4375,178.4063 Q1188.1719,178.4063 1188.8125,178.5781 Q1189.4688,178.7344 1190.0156,179.0938 Z " fill="#000000"/><text fill="#000000" font-family="sans-serif" font-size="14" lengthAdjust="spacing" textLength="29" x="1207.75" y="188.9473">User</text><line style="stroke:#1976D2;stroke-width:0.5;" x1="1053" x2="1359" y1="199.2188" y2="199.2188"/><text fill="#000000" font-family="sans-serif" font-size="14" lengthAdjust="spacing" textLength="73" x="1058" y="217.752">-userID : int</text><text fill="#000000" font-family="sans-serif" font-size="14" lengthAdjust="spacing" textLength="89" x="1058" y="235.3613">-name : String</text><text fill="#000000" font-family="sans-serif" font-size="14" lengthAdjust="spacing" textLength="87" x="1058" y="252.9707">-email : String</text><text fill="#000000" font-family="sans-serif" font-size="14" lengthAdjust="spacing" textLength="78" x="1058" y="270.5801">-role : String</text><text fill="#000000" font-family="sans-serif" font-size="14" lengthAdjust="spacing" text-decoration="underline" textLength="129" x="1058" y="288.1895">-ticketIDCounter : int</text><line style="stroke:#1976D2;stroke-width:0.5;" x1="1053" x2="1359" y1="295.2656" y2="295.2656"/><text fill="#000000" font-family="sans-serif" font-size="14" lengthAdjust="spacing" textLength="204" x="1058" y="313.7988">+User(userID, name, email, role)</text><text fill="#000000" font-family="sans-serif" font-size="14" lengthAdjust="spacing" textLength="296" x="1058" y="331.4082">+createTicket(title, description, priority) : Ticket</text><text fill="#000000" font-family="sans-serif" font-size="14" lengthAdjust="spacing" textLength="154" x="1058" y="349.0176">+viewTicket(ticket) : void</text><text fill="#000000" font-family="sans-serif" font-size="14" lengthAdjust="spacing" textLength="171" x="1058" y="366.627">+updateTicket(ticket) : void</text><text fill="#000000" font-family="sans-serif" font-size="14" lengthAdjust="spacing" textLength="107" x="1058" y="384.2363">+getUserID() : int</text><text fill="#000000" font-family="sans-serif" font-size="14" lengthAdjust="spacing" textLength="123" x="1058" y="401.8457">+getName() : String</text><text fill="#000000" font-family="sans-serif" font-size="14" lengthAdjust="spacing" textLength="121" x="1058" y="419.4551">+getEmail() : String</text><text fill="#000000" font-family="sans-serif" font-size="14" lengthAdjust="spacing" textLength="116" x="1058" y="437.0645">+getRole() : String</text></g><!--class Admin--><g id="elem_Admin"><rect codeLine="118" fill="#E3F2FD" height="118.4375" id="Admin" rx="2.5" ry="2.5" style="stroke:#1976D2;stroke-width:0.5;" width="229" x="787.5" y="246.7188"/><ellipse cx="878.25" cy="262.7188" fill="#ADD1B2" rx="11" ry="11" style="stroke:#181818;stroke-width:1.0;"/><path d="M881.0156,258.5938 Q881.1719,258.375 881.3594,258.2656 Q881.5469,258.1563 881.7656,258.1563 Q882.1406,258.1563 882.375,258.4219 Q882.6094,258.6719 882.6094,259.2813 L882.6094,260.7344 Q882.6094,261.3438 882.375,261.6094 Q882.1406,261.875 881.7656,261.875 Q881.4219,261.875 881.2188,261.6719 Q881.0156,261.4844 880.9063,260.9688 Q880.8594,260.6094 880.6719,260.4219 Q880.3438,260.0469 879.7344,259.8281 Q879.125,259.6094 878.5,259.6094 Q877.7344,259.6094 877.0938,259.9375 Q876.4688,260.2656 875.9688,261.0156 Q875.4844,261.7656 875.4844,262.7969 L875.4844,263.8906 Q875.4844,265.125 876.375,265.9531 Q877.2656,266.7656 878.8594,266.7656 Q879.7969,266.7656 880.4531,266.5156 Q880.8438,266.3594 881.2656,265.9219 Q881.5313,265.6563 881.6719,265.5781 Q881.8281,265.5 882.0313,265.5 Q882.3594,265.5 882.6094,265.7656 Q882.875,266.0156 882.875,266.3594 Q882.875,266.7031 882.5313,267.1094 Q882.0313,267.6875 881.2344,268.0156 Q880.1563,268.4688 878.8594,268.4688 Q877.3438,268.4688 876.1406,267.8438 Q875.1563,267.3438 874.4688,266.2813 Q873.7813,265.2031 873.7813,263.9219 L873.7813,262.7656 Q873.7813,261.4375 874.3906,260.2969 Q875.0156,259.1406 876.1094,258.5313 Q877.2031,257.9063 878.4375,257.9063 Q879.1719,257.9063 879.8125,258.0781 Q880.4688,258.2344 881.0156,258.5938 Z " fill="#000000"/><text fill="#000000" font-family="sans-serif" font-size="14" lengthAdjust="spacing" textLength="39" x="898.75" y="268.4473">Admin</text><line style="stroke:#1976D2;stroke-width:0.5;" x1="788.5" x2="1015.5" y1="278.7188" y2="278.7188"/><line style="stroke:#1976D2;stroke-width:0.5;" x1="788.5" x2="1015.5" y1="286.7188" y2="286.7188"/><text fill="#000000" font-family="sans-serif" font-size="14" lengthAdjust="spacing" textLength="192" x="793.5" y="305.252">+Admin(adminID, name, email)</text><text fill="#000000" font-family="sans-serif" font-size="14" lengthAdjust="spacing" textLength="217" x="793.5" y="322.8613">+assignTicket(ticket, userID) : void</text><text fill="#000000" font-family="sans-serif" font-size="14" lengthAdjust="spacing" textLength="160" x="793.5" y="340.4707">+closeTicket(ticket) : void</text><text fill="#000000" font-family="sans-serif" font-size="14" lengthAdjust="spacing" textLength="179" x="793.5" y="358.0801">+viewAllTickets(tickets) : List</text></g><!--class TicketStatus--><g id="elem_TicketStatus"><rect codeLine="125" fill="#E3F2FD" height="188.875" id="TicketStatus" rx="2.5" ry="2.5" style="stroke:#1976D2;stroke-width:0.5;" width="261" x="787.5" y="663.2188"/><ellipse cx="874.75" cy="679.2188" fill="#EB937F" rx="11" ry="11" style="stroke:#181818;stroke-width:1.0;"/><path d="M873.6094,680.0156 L873.6094,682.5156 L877.9375,682.5156 L877.9375,681.5938 Q877.9375,680.9844 878.1719,680.7188 Q878.4219,680.4531 878.7969,680.4531 Q879.1719,680.4531 879.4063,680.7188 Q879.6406,680.9844 879.6406,681.5938 L879.6406,684.2188 L871.6406,684.2188 Q871.0156,684.2188 870.75,683.9844 Q870.5,683.75 870.5,683.3594 Q870.5,682.9844 870.7656,682.75 Q871.0313,682.5156 871.6406,682.5156 L871.9063,682.5156 L871.9063,675.8594 L871.6406,675.8594 Q871.0156,675.8594 870.75,675.625 Q870.5,675.3906 870.5,675 Q870.5,674.625 870.75,674.3906 Q871.0156,674.1563 871.6406,674.1563 L879.2656,674.1563 L879.2656,676.75 Q879.2656,677.3594 879.0313,677.625 Q878.8125,677.875 878.4219,677.875 Q878.0469,677.875 877.8125,677.625 Q877.5781,677.3594 877.5781,676.75 L877.5781,675.8594 L873.6094,675.8594 L873.6094,678.3125 L875.0938,678.3125 Q875.0938,677.6563 875.2188,677.4688 Q875.4844,677.0625 875.9531,677.0625 Q876.3281,677.0625 876.5625,677.3281 Q876.7969,677.5781 876.7969,678.1875 L876.7969,680.1563 Q876.7969,680.7031 876.6719,680.8906 Q876.4063,681.2813 875.9531,681.2813 Q875.4844,681.2813 875.2188,680.875 Q875.0938,680.6875 875.0938,680.0156 L873.6094,680.0156 Z " fill="#000000"/><text fill="#000000" font-family="sans-serif" font-size="14" lengthAdjust="spacing" textLength="78" x="895.25" y="684.9473">TicketStatus</text><line style="stroke:#1976D2;stroke-width:0.5;" x1="788.5" x2="1047.5" y1="695.2188" y2="695.2188"/><text fill="#000000" font-family="sans-serif" font-size="14" lengthAdjust="spacing" textLength="57" x="793.5" y="713.752">OUVERT</text><text fill="#000000" font-family="sans-serif" font-size="14" lengthAdjust="spacing" textLength="59" x="793.5" y="731.3613">ASSIGNE</text><text fill="#000000" font-family="sans-serif" font-size="14" lengthAdjust="spacing" textLength="80" x="793.5" y="748.9707">VALIDATION</text><text fill="#000000" font-family="sans-serif" font-size="14" lengthAdjust="spacing" textLength="60" x="793.5" y="766.5801">TERMINE</text><text fill="#000000" font-family="sans-serif" font-size="14" lengthAdjust="spacing" textLength="48" x="793.5" y="784.1895">FERME</text><line style="stroke:#1976D2;stroke-width:0.5;" x1="788.5" x2="1047.5" y1="791.2656" y2="791.2656"/><text fill="#000000" font-family="sans-serif" font-size="14" lengthAdjust="spacing" textLength="249" x="793.5" y="809.7988">+canTransitionTo(newStatus) : boolean</text><text fill="#000000" font-family="sans-serif" font-size="14" lengthAdjust="spacing" textLength="214" x="793.5" y="827.4082">+getAvailableTransitions() : String</text><text fill="#000000" font-family="sans-serif" font-size="14" lengthAdjust="spacing" textLength="169" x="793.5" y="845.0176">+getDisplayName() : String</text></g><!--class Ticket--><g id="elem_Ticket"><rect codeLine="136" fill="#E3F2FD" height="470.625" id="Ticket" rx="2.5" ry="2.5" style="stroke:#1976D2;stroke-width:0.5;" width="272" x="1084" y="522.2188"/><ellipse cx="1196.75" cy="538.2188" fill="#ADD1B2" rx="11" ry="11" style="stroke:#181818;stroke-width:1.0;"/><path d="M1199.5156,534.0938 Q1199.6719,533.875 1199.8594,533.7656 Q1200.0469,533.6563 1200.2656,533.6563 Q1200.6406,533.6563 1200.875,533.9219 Q1201.1094,534.1719 1201.1094,534.7813 L1201.1094,536.2344 Q1201.1094,536.8438 1200.875,537.1094 Q1200.6406,537.375 1200.2656,537.375 Q1199.9219,537.375 1199.7188,537.1719 Q1199.5156,536.9844 1199.4063,536.4688 Q1199.3594,536.1094 1199.1719,535.9219 Q1198.8438,535.5469 1198.2344,535.3281 Q1197.625,535.1094 1197,535.1094 Q1196.2344,535.1094 1195.5938,535.4375 Q1194.9688,535.7656 1194.4688,536.5156 Q1193.9844,537.2656 1193.9844,538.2969 L1193.9844,539.3906 Q1193.9844,540.625 1194.875,541.4531 Q1195.7656,542.2656 1197.3594,542.2656 Q1198.2969,542.2656 1198.9531,542.0156 Q1199.3438,541.8594 1199.7656,541.4219 Q1200.0313,541.1563 1200.1719,541.0781 Q1200.3281,541 1200.5313,541 Q1200.8594,541 1201.1094,541.2656 Q1201.375,541.5156 1201.375,541.8594 Q1201.375,542.2031 1201.0313,542.6094 Q1200.5313,543.1875 1199.7344,543.5156 Q1198.6563,543.9688 1197.3594,543.9688 Q1195.8438,543.9688 1194.6406,543.3438 Q1193.6563,542.8438 1192.9688,541.7813 Q1192.2813,540.7031 1192.2813,539.4219 L1192.2813,538.2656 Q1192.2813,536.9375 1192.8906,535.7969 Q1193.5156,534.6406 1194.6094,534.0313 Q1195.7031,533.4063 1196.9375,533.4063 Q1197.6719,533.4063 1198.3125,533.5781 Q1198.9688,533.7344 1199.5156,534.0938 Z " fill="#000000"/><text fill="#000000" font-family="sans-serif" font-size="14" lengthAdjust="spacing" textLength="38" x="1217.25" y="543.9473">Ticket</text><line style="stroke:#1976D2;stroke-width:0.5;" x1="1085" x2="1355" y1="554.2188" y2="554.2188"/><text fill="#000000" font-family="sans-serif" font-size="14" lengthAdjust="spacing" textLength="78" x="1090" y="572.752">-ticketID : int</text><text fill="#000000" font-family="sans-serif" font-size="14" lengthAdjust="spacing" textLength="76" x="1090" y="590.3613">-title : String</text><text fill="#000000" font-family="sans-serif" font-size="14" lengthAdjust="spacing" textLength="136" x="1090" y="607.9707">-description : Content</text><text fill="#000000" font-family="sans-serif" font-size="14" lengthAdjust="spacing" textLength="133" x="1090" y="625.5801">-status : TicketStatus</text><text fill="#000000" font-family="sans-serif" font-size="14" lengthAdjust="spacing" textLength="97" x="1090" y="643.1895">-priority : String</text><text fill="#000000" font-family="sans-serif" font-size="14" lengthAdjust="spacing" textLength="128" x="1090" y="660.7988">-creationDate : Date</text><text fill="#000000" font-family="sans-serif" font-size="14" lengthAdjust="spacing" textLength="121" x="1090" y="678.4082">-updateDate : Date</text><text fill="#000000" font-family="sans-serif" font-size="14" lengthAdjust="spacing" textLength="177" x="1090" y="696.0176">-assignedToUserID : Integer</text><text fill="#000000" font-family="sans-serif" font-size="14" lengthAdjust="spacing" textLength="103" x="1090" y="713.627">-comments : List</text><line style="stroke:#1976D2;stroke-width:0.5;" x1="1085" x2="1355" y1="720.7031" y2="720.7031"/><text fill="#000000" font-family="sans-serif" font-size="14" lengthAdjust="spacing" textLength="260" x="1090" y="739.2363">+Ticket(ticketID, title, description, priority)</text><text fill="#000000" font-family="sans-serif" font-size="14" lengthAdjust="spacing" textLength="155" x="1090" y="756.8457">+assignTo(userID) : void</text><text fill="#000000" font-family="sans-serif" font-size="14" lengthAdjust="spacing" textLength="205" x="1090" y="774.4551">+updateStatus(newStatus) : void</text><text fill="#000000" font-family="sans-serif" font-size="14" lengthAdjust="spacing" textLength="197" x="1090" y="792.0645">+addComment(comment) : void</text><text fill="#000000" font-family="sans-serif" font-size="14" lengthAdjust="spacing" textLength="139" x="1090" y="809.6738">+getComments() : List</text><text fill="#000000" font-family="sans-serif" font-size="14" lengthAdjust="spacing" textLength="167" x="1090" y="827.2832">+displayComments() : void</text><text fill="#000000" font-family="sans-serif" font-size="14" lengthAdjust="spacing" textLength="215" x="1090" y="844.8926">+setDescription(description) : void</text><text fill="#000000" font-family="sans-serif" font-size="14" lengthAdjust="spacing" textLength="171" x="1090" y="862.502">+getDescription() : Content</text><text fill="#000000" font-family="sans-serif" font-size="14" lengthAdjust="spacing" textLength="171" x="1090" y="880.1113">+displayDescription() : void</text><text fill="#000000" font-family="sans-serif" font-size="14" lengthAdjust="spacing" textLength="175" x="1090" y="897.7207">+exportTo(exporter) : String</text><text fill="#000000" font-family="sans-serif" font-size="14" lengthAdjust="spacing" textLength="151" x="1090" y="915.3301">+exportToPDF() : String</text><text fill="#000000" font-family="sans-serif" font-size="14" lengthAdjust="spacing" textLength="116" x="1090" y="932.9395">+getTicketID() : int</text><text fill="#000000" font-family="sans-serif" font-size="14" lengthAdjust="spacing" textLength="114" x="1090" y="950.5488">+getTitle() : String</text><text fill="#000000" font-family="sans-serif" font-size="14" lengthAdjust="spacing" textLength="168" x="1090" y="968.1582">+getStatus() : TicketStatus</text><text fill="#000000" font-family="sans-serif" font-size="14" lengthAdjust="spacing" textLength="131" x="1090" y="985.7676">+getPriority() : String</text></g><g id="elem_GMN36"><path d="M1803.5,1138.2188 L1803.5,1155.7188 L1369.7,1159.7188 L1803.5,1163.7188 L1803.5,1180.9219 A0,0 0 0 0 1803.5,1180.9219 L1934.5,1180.9219 A0,0 0 0 0 1934.5,1180.9219 L1934.5,1148.2188 L1924.5,1138.2188 L1803.5,1138.2188 A0,0 0 0 0 1803.5,1138.2188 " fill="#FEFFDD" style="stroke:#181818;stroke-width:0.5;"/><path d="M1924.5,1138.2188 L1924.5,1148.2188 L1934.5,1148.2188 L1924.5,1138.2188 " fill="#FEFFDD" style="stroke:#181818;stroke-width:0.5;"/><text fill="#000000" font-family="sans-serif" font-size="13" lengthAdjust="spacing" textLength="104" x="1809.5" y="1156.7139">Patron Composite</text><text fill="#000000" font-family="sans-serif" font-size="13" lengthAdjust="spacing" textLength="110" x="1809.5" y="1173.0654">Interface commune</text></g><g id="elem_GMN39"><path d="M1803,1369.7188 L1803,1412.4219 L1925,1412.4219 L1925,1379.7188 L1915,1369.7188 L1803,1369.7188 " fill="#FEFFDD" style="stroke:#181818;stroke-width:0.5;"/><path d="M1915,1369.7188 L1915,1379.7188 L1925,1379.7188 L1915,1369.7188 " fill="#FEFFDD" style="stroke:#181818;stroke-width:1.0;"/><text fill="#000000" font-family="sans-serif" font-size="13" lengthAdjust="spacing" textLength="91" x="1809" y="1388.2139">Patron Strategy</text><text fill="#000000" font-family="sans-serif" font-size="13" lengthAdjust="spacing" textLength="101" x="1809" y="1404.5654">Export extensible</text></g><g id="elem_GMN42"><path d="M1970,1122.2188 L1970,1197.625 L2186,1197.625 L2186,1132.2188 L2176,1122.2188 L1970,1122.2188 " fill="#FEFFDD" style="stroke:#181818;stroke-width:0.5;"/><path d="M2176,1122.2188 L2176,1132.2188 L2186,1132.2188 L2176,1122.2188 " fill="#FEFFDD" style="stroke:#181818;stroke-width:1.0;"/><text fill="#000000" font-family="sans-serif" font-size="13" lengthAdjust="spacing" textLength="133" x="1976" y="1140.7139">Changements Partie 2:</text><text fill="#000000" font-family="sans-serif" font-size="13" lengthAdjust="spacing" textLength="195" x="1976" y="1157.0654">- description: Content (extensible)</text><text fill="#000000" font-family="sans-serif" font-size="13" lengthAdjust="spacing" textLength="190" x="1976" y="1173.417">- status: TicketStatus (type-safe)</text><text fill="#000000" font-family="sans-serif" font-size="13" lengthAdjust="spacing" textLength="164" x="1976" y="1189.7686">- Nouvelles m&#233;thodes export</text></g><!--link User to Admin--><!--link Admin to User--><g id="link_Admin_User"><path codeLine="172" d="M1016.59,264.1488 C1028.31,262.4688 1022.0207,261.7323 1033.7407,261.6323 " fill="none" id="Admin-to-User" style="stroke:#1976D2;stroke-width:1.0;"/><polygon fill="none" points="1051.74,261.4788,1033.6895,255.6325,1033.7918,267.6321,1051.74,261.4788" style="stroke:#1976D2;stroke-width:1.0;"/></g><!--link Admin to TicketStatus--><!--link TicketStatus to Ticket--><!--link Ticket to TicketStatus--><g id="link_Ticket_TicketStatus"><path codeLine="174" d="M1083.79,687.5188 C1072.08,686.4488 1066.3126,685.8964 1054.6026,687.3764 " fill="none" id="Ticket-to-TicketStatus" style="stroke:#1976D2;stroke-width:1.0;"/><polygon fill="#1976D2" points="1048.65,688.1288,1058.0805,690.9687,1053.6105,687.5018,1057.0774,683.0318,1048.65,688.1288" style="stroke:#1976D2;stroke-width:1.0;"/></g><!--link entities to content--><!--link content to exporter--><!--link Ticket to Content--><g id="link_Ticket_Content"><path codeLine="175" d="M1256.97,993.4288 C1264.56,1041.6188 1270.7767,1081.1018 1275.6567,1112.0918 " fill="none" id="Ticket-to-Content" style="stroke:#1976D2;stroke-width:1.0;"/><polygon fill="#1976D2" points="1276.59,1118.0188,1279.1413,1108.5061,1275.8122,1113.0796,1271.2387,1109.7505,1276.59,1118.0188" style="stroke:#1976D2;stroke-width:1.0;"/></g><!--link User to Ticket--><g id="link_User_Ticket"><path codeLine="177" d="M1210.29,444.4888 C1211.05,469.1688 1211.6823,489.5017 1212.5123,516.0217 " fill="none" id="User-to-Ticket" style="stroke:#1976D2;stroke-width:1.0;"/><polygon fill="#1976D2" points="1212.7,522.0188,1216.4165,512.898,1212.5436,517.0212,1208.4204,513.1483,1212.7,522.0188" style="stroke:#1976D2;stroke-width:1.0;"/><text fill="#000000" font-family="sans-serif" font-size="13" lengthAdjust="spacing" textLength="43" x="1212" y="488.7139">creates</text><text fill="#000000" font-family="sans-serif" font-size="13" lengthAdjust="spacing" textLength="7" x="1203.3307" y="465.5628">1</text><text fill="#000000" font-family="sans-serif" font-size="13" lengthAdjust="spacing" textLength="20" x="1192.1323" y="511.5294">0..*</text></g><!--reverse link Content to TextContent--><g id="link_Content_TextContent"><path codeLine="179" d="M1386.9458,1188.6733 C1439.5458,1205.1633 1488.94,1225.8288 1540,1263.2188 C1559.2,1277.2788 1576.94,1295.6788 1592.13,1314.0888 " fill="none" id="Content-backto-TextContent" style="stroke:#1976D2;stroke-width:1.0;stroke-dasharray:7.0,7.0;"/><polygon fill="none" points="1369.77,1183.2888,1385.1509,1194.3986,1388.7406,1182.9481,1369.77,1183.2888" style="stroke:#1976D2;stroke-width:1.0;"/></g><!--reverse link Content to ImageContent--><g id="link_Content_ImageContent"><path codeLine="180" d="M1179.7987,1207.2947 C1117.8287,1235.3147 1061.27,1261.0488 1058,1263.2188 C1050.58,1268.1588 1043.17,1273.5088 1035.85,1279.1188 " fill="none" id="Content-backto-ImageContent" style="stroke:#1976D2;stroke-width:1.0;stroke-dasharray:7.0,7.0;"/><polygon fill="none" points="1196.2,1199.8787,1177.3267,1201.8276,1182.2706,1212.7618,1196.2,1199.8787" style="stroke:#1976D2;stroke-width:1.0;"/></g><!--reverse link Content to VideoContent--><g id="link_Content_VideoContent"><path codeLine="181" d="M1261.0254,1218.0255 C1252.6354,1239.9055 1248.27,1251.2788 1237.58,1279.1788 " fill="none" id="Content-backto-VideoContent" style="stroke:#1976D2;stroke-width:1.0;stroke-dasharray:7.0,7.0;"/><polygon fill="none" points="1267.47,1201.2188,1255.4231,1215.8773,1266.6276,1220.1737,1267.47,1201.2188" style="stroke:#1976D2;stroke-width:1.0;"/></g><!--reverse link Content to CompositeContent--><g id="link_Content_CompositeContent"><path codeLine="182" d="M1319.986,1216.1947 C1336.116,1240.3847 1347.4,1257.3188 1367.87,1288.0188 " fill="none" id="Content-backto-CompositeContent" style="stroke:#1976D2;stroke-width:1.0;stroke-dasharray:7.0,7.0;"/><polygon fill="none" points="1310,1201.2188,1314.994,1219.5234,1324.978,1212.866,1310,1201.2188" style="stroke:#1976D2;stroke-width:1.0;"/></g><!--reverse link CompositeContent to Content--><g id="link_CompositeContent_Content"><path codeLine="184" d="M1375.3386,1277.4716 C1363.9586,1258.2416 1357.67,1248.9388 1345,1231.2188 C1337.8,1221.1388 1329.41,1210.8288 1321.17,1201.3188 " fill="none" id="CompositeContent-backto-Content" style="stroke:#1976D2;stroke-width:1.0;"/><polygon fill="none" points="1381.45,1287.7988,1381.8367,1280.598,1375.3386,1277.4716,1374.9519,1284.6723,1381.45,1287.7988" style="stroke:#1976D2;stroke-width:1.0;"/><text fill="#000000" font-family="sans-serif" font-size="13" lengthAdjust="spacing" textLength="45" x="1357" y="1245.7139">children</text><text fill="#000000" font-family="sans-serif" font-size="13" lengthAdjust="spacing" textLength="7" x="1370.3684" y="1277.455">1</text><text fill="#000000" font-family="sans-serif" font-size="13" lengthAdjust="spacing" textLength="20" x="1305.8357" y="1223.0399">0..*</text></g><!--reverse link Exporter to PDFExporter--><g id="link_Exporter_PDFExporter"><path codeLine="186" d="M445.9217,1471.2825 C404.1417,1507.9525 365.27,1542.0688 319.55,1582.1988 " fill="none" id="Exporter-backto-PDFExporter" style="stroke:#1976D2;stroke-width:1.0;stroke-dasharray:7.0,7.0;"/><polygon fill="none" points="459.45,1459.4088,441.9638,1466.773,449.8796,1475.7919,459.45,1459.4088" style="stroke:#1976D2;stroke-width:1.0;"/></g><!--reverse link Exporter to HTMLExporter--><g id="link_Exporter_HTMLExporter"><path codeLine="187" d="M539.305,1477.3953 C540.975,1520.6153 542.46,1558.7888 544.18,1603.0588 " fill="none" id="Exporter-backto-HTMLExporter" style="stroke:#1976D2;stroke-width:1.0;stroke-dasharray:7.0,7.0;"/><polygon fill="none" points="538.61,1459.4088,533.3095,1477.627,545.3005,1477.1637,538.61,1459.4088" style="stroke:#1976D2;stroke-width:1.0;"/></g><!--link Ticket to Exporter--><g id="link_Ticket_Exporter"><path codeLine="189" d="M1119.79,993.4188 C1104.17,1011.9588 1086.33,1028.4288 1066,1041.2188 C1004.23,1080.0988 800.68,1020.8188 738,1058.2188 C639.5,1116.9888 584.6966,1238.4333 557.6766,1317.2133 " fill="none" id="Ticket-to-Exporter" style="stroke:#1976D2;stroke-width:1.0;stroke-dasharray:7.0,7.0;"/><polygon fill="#1976D2" points="555.73,1322.8888,562.4335,1315.6733,557.3521,1318.1592,554.8662,1313.0778,555.73,1322.8888" style="stroke:#1976D2;stroke-width:1.0;"/><text fill="#000000" font-family="sans-serif" font-size="13" lengthAdjust="spacing" textLength="21" x="739" y="1165.2139">use</text></g><!--link Content to Exporter--><g id="link_Content_Exporter"><path codeLine="190" d="M1196.48,1200.2088 C1195.31,1200.5588 1194.16,1200.8987 1193,1201.2188 C1084.54,1231.5588 793.46,1218.7288 690,1263.2188 C657.37,1277.2488 630.6729,1296.4321 605.0029,1319.1521 " fill="none" id="Content-to-Exporter" style="stroke:#1976D2;stroke-width:1.0;stroke-dasharray:7.0,7.0;"/><polygon fill="#1976D2" points="600.51,1323.1287,609.9005,1320.1591,604.2541,1319.8149,604.5983,1314.1685,600.51,1323.1287" style="stroke:#1976D2;stroke-width:1.0;"/><text fill="#000000" font-family="sans-serif" font-size="13" lengthAdjust="spacing" textLength="39" x="869" y="1245.7139">accept</text></g><!--link Exporter to GMN39--><g id="link_Exporter_GMN39"><path d="M588.02,1323.0688 C618.59,1288.7888 660.44,1250.6788 707.5,1232.2188 C760.36,1211.4888 1677.99,1208.3288 1729.5,1232.2188 C1791.16,1260.8188 1834.79,1333.1688 1853.62,1369.5788 " fill="none" id="Exporter-GMN39" style="stroke:#1976D2;stroke-width:1.0;stroke-dasharray:7.0,7.0;"/></g><!--link Ticket to GMN42--><g id="link_Ticket_GMN42"><path d="M1356.29,801.4088 C1507.51,851.7088 1756.03,943.1788 1952,1058.2188 C1982.89,1076.3488 2014.39,1101.4788 2038.17,1122.0688 " fill="none" id="Ticket-GMN42" style="stroke:#1976D2;stroke-width:1.0;stroke-dasharray:7.0,7.0;"/></g><!--SRC=[vLZTRjis5BxNKn3UnUJLCjeEs32Z2E3vfpNG9a7jv6OR1aPYRA8IQP1qqgpD-spFqHVRuOzaYgAS0UlLvei6FUVZuJdV-I6fRz6CirkwFGYiA6UeE22f7agIo0-KxR705SfBBELKAK5l3egiSixMz0-2ddiGkSC5lwTiYsvnAVt5DpZ_i1Nym8ePBxb0topDBpIFFYK8VZ-7wCNtovVBkTLnKH3Xv2z- -l67-KiZdmh1xzlYHy_y7apYBLdhe90WkS9i2-4bYYeGh1-a-l9dHL11q6iYBGK4RMZ-WIY9CdI9XQ84lVoLNM8bE9DQ3HJaPA_14w2lsdD95HcXjG8IoVPXXAufIBX84hSx6fWeYHp3KaMO6a30ndiA_nMtE2Sw3rhZcD2_PwYWSb_YXtI89jew4EmfSQwTICd7FHTW9C0yMlkMtGtvgBhsCwH07ZFjuLED6NuTdoncIvIs7pSWdTBi2e0xJejkFAiAI8q5HBK2ChNhsivGZatEOjlw1jF6oAXUCdmI-hKPMjM6qpx4pBhMI-FHmbxxvtFPO6eRTPYzX5_JWl0OuNTQqKTuKK-LYQvpRslVNDgO63KBXazYlpRVrxNXNhxdpZS3Q8SZ_VNzR3SMcZ1x-MwcIeppV4VBGX1DwrigVKV2PQbF4owAr8sVY7-2LFoEd03eadCR6mg2hQbSL7jbat33UKamywE74oD2tB-QRu-HyLg38_DruLIj0MlnVjGTDooa6Kgp9w6cyUnaU1fiwiQMzTFW9htWS3lHfuR_vNmPYJr3dwI2AimVDU3tDulfVF4-riGjsFBYOXE3_MUPh6kV4NssBsb9pd55KcKk2AlvATxVRDwzROX_zUhse0w2d9tzF-elsfmCBbsKo86ZG76OARjMLLhchcHBQElm0CBLF1WXLiKW9LslhOvKc9PzIW5pga_Nr7sTwndSItKgknuyCnwdriEHSMTaDnwPBOO1EXS4YibUCbDp4OMZZyXSK7CCZz1UK2weUj2qMbXWuOwI-sQz_jCPs1Pts1V-JYUGa8ehutzdJ3TwK_d3E5y6iD0XdqIy1pPY0DSunnAO5XLbGGqyiz8Kwty3eaEAmGRTibRW8rT2FGJa9PV_Y2dD_RGitHl1OMNdIFH28knGkJokeQWECWZiukfwyNxJ4atNwzNhyqLBTZrzkvfFDwkByvOO1lAxLG1TWcmH1eZPHc06NGirjk4f8_VMczYHtMHiUWViufkI7DVAaocUspEzhrWwcRQyTDgzxhfemzl7Mq_ZUfs49lMpAi18cuP9Aoi1fcx2ldrC5yCcS-WmmEW_uSWotTUljqLAYWs_geVR2hpT4X5knQiAWf1XZRdNcb-qkYzEZfHue_3qP7FOI2nDxSA9WE6YERCEfyxn_fdZWB9xfMpT45kmY2Lzkpv6ctgHzs_jBnZsL4hZG0YEc7G7DJ_rrcWZuKPrifKsBgFz8tcZCttIXilPy5Ij6-2bAv1uqtgjQqxdx9STBGh2VXDqkrEPdSpsUuoPtA6-itTh7CRH-X8HkJmqu8BViwpxQINfVcm9xNVV2qdY_Cu-dva8ayGDfYmxQtlloUkIIGmdWnS38nqy7u-_6zI3RUAEUvaazMFkrUVnsF_6qbRu7nZQ6lyftDQ43p-zL_22rDxnBAkzgyMJvZcP9CVRghRflHi2ZN-pRNWQZy-ERwo9FciR5mELVTWb2UCm64r64B_rsiz-QJl61A9LyupJ4-N0I49OWRI1q4pZLsEd_Ym74gk4_eET98L3BJHpmvNYbRRJNBjcEyosn8xV-clW90aEccPweFHeV9WSZvfszw5KFUn99l6j0vtpmnqfIo9HzUKljUDWsas9euT_0m00]--></g></svg>